<mxfile host="app.diagrams.net" modified="2023-09-05T06:42:13.907Z" agent="Mozilla/5.0 (Macintosh; Intel Mac OS X 10_15_7) AppleWebKit/537.36 (KHTML, like Gecko) Chrome/116.0.0.0 Safari/537.36" version="21.7.2" etag="Vq3KO35nXtBJUypb8-m0" type="github">
  <diagram name="Page-1" id="UB0BWMv59qe7QGOCG_Nc">
    <mxGraphModel>
      <root>
        <mxCell id="0" />
        <mxCell id="1" parent="0" />
      </root>
    </mxGraphModel>
  </diagram>
</mxfile>
